<?xml version="1.0" encoding="utf-8"?>
<!-- Generator: Adobe Illustrator 26.2.1, SVG Export Plug-In . SVG Version: 6.00 Build 0)  -->
<svg version="1.1" id="Layer_1" xmlns="http://www.w3.org/2000/svg" xmlns:xlink="http://www.w3.org/1999/xlink" x="0px" y="0px"
	 viewBox="0 0 144.76 42.66" style="enable-background:new 0 0 144.76 42.66;" xml:space="preserve">
<style type="text/css">
	.st0{fill:#FFFFFF;}
	.st1{fill:url(#SVGID_1_);}
	.st2{fill:url(#SVGID_00000163052403447122652060000000817344758288517527_);}
</style>
<g>
	<path class="st0" d="M36.77,0c-1.1,0-2.06,0.38-2.87,1.12c-0.81,0.75-1.21,1.65-1.21,2.72c0,1.06,0.4,1.97,1.21,2.72
		c0.81,0.75,1.76,1.12,2.87,1.12c1.14,0,2.1-0.36,2.87-1.09c0.77-0.73,1.15-1.64,1.15-2.75c0-1.1-0.38-2.02-1.15-2.75
		C38.87,0.36,37.91,0,36.77,0z"/>
	<path class="st0" d="M62.95,34.39c-1.1,0-2.06,0.38-2.87,1.12c-0.81,0.75-1.21,1.65-1.21,2.72c0,1.06,0.4,1.97,1.21,2.72
		c0.81,0.75,1.76,1.12,2.87,1.12c1.14,0,2.1-0.36,2.87-1.09c0.77-0.73,1.15-1.64,1.15-2.75c0-1.1-0.38-2.02-1.15-2.75
		C65.05,34.75,64.09,34.39,62.95,34.39z"/>
	<rect x="33.76" y="13.87" class="st0" width="6.03" height="28.2"/>
	<polygon class="st0" points="54.2,0 48.12,0 48.12,13.87 43.15,13.87 43.15,18.9 48.12,18.9 48.12,42.07 54.2,42.07 54.2,18.9 
		60.05,18.9 60.05,13.87 54.2,13.87 	"/>
	<path class="st0" d="M96.34,17.84c-2.8-2.64-6.23-3.96-10.28-3.96c-3.16,0-5.93,0.83-8.33,2.46V0h-6.09v42.07h6.09v-1.93
		c2.39,1.67,5.17,2.52,8.33,2.52c4.02,0,7.44-1.35,10.25-4.05c2.82-2.7,4.23-6.18,4.23-10.43S99.14,20.48,96.34,17.84z M92.03,34.39
		c-1.62,1.58-3.61,2.36-5.97,2.36c-2.33,0-4.29-0.8-5.91-2.39c-1.59-1.57-2.4-3.6-2.42-6.07v-0.2c0.02-2.43,0.82-4.41,2.42-5.93
		c1.62-1.54,3.58-2.3,5.91-2.3c2.36,0,4.35,0.77,5.97,2.3c1.62,1.54,2.42,3.55,2.42,6.03C94.45,30.75,93.64,32.82,92.03,34.39z"/>
	<path class="st0" d="M14.61,13.88c-3.16,0-5.94,0.83-8.33,2.47V0H0.19v42.07h6.09v-1.93c2.39,1.67,5.17,2.52,8.33,2.52
		c4.02,0,7.44-1.35,10.25-4.05c2.82-2.7,4.23-6.18,4.23-10.43s-1.4-7.7-4.2-10.34C22.09,15.2,18.66,13.88,14.61,13.88z M20.58,34.39
		c-1.62,1.58-3.61,2.36-5.97,2.36c-2.33,0-4.29-0.8-5.91-2.39c-1.61-1.59-2.41-3.63-2.42-6.13v-0.09c0.01-2.46,0.81-4.46,2.42-5.98
		c1.62-1.54,3.58-2.3,5.91-2.3c2.36,0,4.35,0.77,5.97,2.3C22.19,23.69,23,25.7,23,28.18C23,30.75,22.19,32.82,20.58,34.39z"/>
</g>
<linearGradient id="SVGID_1_" gradientUnits="userSpaceOnUse" x1="98.6299" y1="4.8962" x2="117.8829" y2="38.2434">
	<stop  offset="0.3775" style="stop-color:#E9500D"/>
	<stop  offset="0.5303" style="stop-color:#EF7112"/>
	<stop  offset="0.7329" style="stop-color:#F59619"/>
	<stop  offset="0.8967" style="stop-color:#FAAD1D"/>
	<stop  offset="1" style="stop-color:#FBB51E"/>
</linearGradient>
<path class="st1" d="M105.39,6.56c-0.81-0.75-1.21-1.65-1.21-2.72c0-1.06,0.4-1.97,1.21-2.72C106.2,0.38,107.15,0,108.26,0
	c1.14,0,2.1,0.36,2.87,1.09c0.77,0.73,1.15,1.65,1.15,2.75c0,1.1-0.38,2.02-1.15,2.75c-0.77,0.73-1.72,1.09-2.87,1.09
	C107.15,7.68,106.2,7.31,105.39,6.56z M111.25,42.07V13.88h-6.03v28.19H111.25z"/>
<linearGradient id="SVGID_00000151537057281294992250000015828519351035627183_" gradientUnits="userSpaceOnUse" x1="122.1657" y1="14.0556" x2="138.7914" y2="42.8522">
	<stop  offset="0.1314" style="stop-color:#37D6EE"/>
	<stop  offset="0.4383" style="stop-color:#5D8DEC"/>
	<stop  offset="0.7931" style="stop-color:#863EEB"/>
	<stop  offset="0.9564" style="stop-color:#961FEA"/>
</linearGradient>
<path style="fill:url(#SVGID_00000151537057281294992250000015828519351035627183_);" d="M140.54,38.62
	c-2.82,2.7-6.23,4.05-10.25,4.05c-4.02,0-7.42-1.35-10.2-4.05c-2.78-2.7-4.17-6.18-4.17-10.43s1.39-7.7,4.17-10.34
	c2.78-2.64,6.18-3.96,10.2-3.96c4.06,0,7.49,1.32,10.28,3.96c2.8,2.64,4.2,6.09,4.2,10.34S143.35,35.92,140.54,38.62z M130.28,36.75
	c2.36,0,4.35-0.79,5.97-2.36c1.62-1.58,2.42-3.64,2.42-6.21c0-2.48-0.81-4.49-2.42-6.03c-1.62-1.54-3.61-2.3-5.97-2.3
	c-2.33,0-4.29,0.77-5.91,2.3c-1.62,1.54-2.42,3.55-2.42,6.03c0,2.52,0.81,4.58,2.42,6.18C125.99,35.96,127.96,36.75,130.28,36.75z"
	/>
</svg>
